<?xml version="1.0" standalone="no"?><svg xmlns="http://www.w3.org/2000/svg" viewBox="0 0 1440 320"><path fill="#EECF89" fill-opacity="1" d="M0,160L8.9,154.7C17.8,149,36,139,53,154.7C71.1,171,89,213,107,208C124.4,203,142,149,160,138.7C177.8,128,196,160,213,170.7C231.1,181,249,171,267,181.3C284.4,192,302,224,320,213.3C337.8,203,356,149,373,128C391.1,107,409,117,427,149.3C444.4,181,462,235,480,229.3C497.8,224,516,160,533,117.3C551.1,75,569,53,587,69.3C604.4,85,622,139,640,138.7C657.8,139,676,85,693,69.3C711.1,53,729,75,747,80C764.4,85,782,75,800,106.7C817.8,139,836,213,853,250.7C871.1,288,889,288,907,245.3C924.4,203,942,117,960,117.3C977.8,117,996,203,1013,208C1031.1,213,1049,139,1067,138.7C1084.4,139,1102,213,1120,240C1137.8,267,1156,245,1173,208C1191.1,171,1209,117,1227,112C1244.4,107,1262,149,1280,165.3C1297.8,181,1316,171,1333,160C1351.1,149,1369,139,1387,160C1404.4,181,1422,235,1431,261.3L1440,288L1440,320L1431.1,320C1422.2,320,1404,320,1387,320C1368.9,320,1351,320,1333,320C1315.6,320,1298,320,1280,320C1262.2,320,1244,320,1227,320C1208.9,320,1191,320,1173,320C1155.6,320,1138,320,1120,320C1102.2,320,1084,320,1067,320C1048.9,320,1031,320,1013,320C995.6,320,978,320,960,320C942.2,320,924,320,907,320C888.9,320,871,320,853,320C835.6,320,818,320,800,320C782.2,320,764,320,747,320C728.9,320,711,320,693,320C675.6,320,658,320,640,320C622.2,320,604,320,587,320C568.9,320,551,320,533,320C515.6,320,498,320,480,320C462.2,320,444,320,427,320C408.9,320,391,320,373,320C355.6,320,338,320,320,320C302.2,320,284,320,267,320C248.9,320,231,320,213,320C195.6,320,178,320,160,320C142.2,320,124,320,107,320C88.9,320,71,320,53,320C35.6,320,18,320,9,320L0,320Z"></path></svg>