<?xml version="1.0" standalone="no"?><svg xmlns="http://www.w3.org/2000/svg" viewBox="0 0 1440 320"><path fill="#EECF89" fill-opacity="1" d="M0,256L0,160L68.6,160L68.6,160L137.1,160L137.1,160L205.7,160L205.7,192L274.3,192L274.3,32L342.9,32L342.9,32L411.4,32L411.4,32L480,32L480,96L548.6,96L548.6,0L617.1,0L617.1,288L685.7,288L685.7,256L754.3,256L754.3,256L822.9,256L822.9,32L891.4,32L891.4,224L960,224L960,288L1028.6,288L1028.6,64L1097.1,64L1097.1,192L1165.7,192L1165.7,192L1234.3,192L1234.3,128L1302.9,128L1302.9,224L1371.4,224L1371.4,288L1440,288L1440,320L1371.4,320L1371.4,320L1302.9,320L1302.9,320L1234.3,320L1234.3,320L1165.7,320L1165.7,320L1097.1,320L1097.1,320L1028.6,320L1028.6,320L960,320L960,320L891.4,320L891.4,320L822.9,320L822.9,320L754.3,320L754.3,320L685.7,320L685.7,320L617.1,320L617.1,320L548.6,320L548.6,320L480,320L480,320L411.4,320L411.4,320L342.9,320L342.9,320L274.3,320L274.3,320L205.7,320L205.7,320L137.1,320L137.1,320L68.6,320L68.6,320L0,320L0,320Z"></path></svg>